<mxfile host="65bd71144e">
    <diagram id="Gu8ozvYlFjWhI-r68KEQ" name="Page-1">
        <mxGraphModel dx="1180" dy="604" grid="1" gridSize="10" guides="1" tooltips="1" connect="1" arrows="1" fold="1" page="1" pageScale="1" pageWidth="1100" pageHeight="850" math="0" shadow="0">
            <root>
                <mxCell id="0"/>
                <mxCell id="1" parent="0"/>
                <mxCell id="8" style="edgeStyle=orthogonalEdgeStyle;html=1;exitX=1;exitY=0.5;exitDx=0;exitDy=0;entryX=0;entryY=0.5;entryDx=0;entryDy=0;" edge="1" parent="1" source="2" target="6">
                    <mxGeometry relative="1" as="geometry"/>
                </mxCell>
                <mxCell id="17" style="edgeStyle=orthogonalEdgeStyle;html=1;exitX=1;exitY=0.5;exitDx=0;exitDy=0;entryX=0;entryY=0.5;entryDx=0;entryDy=0;startArrow=none;startFill=0;" edge="1" parent="1" source="2" target="4">
                    <mxGeometry relative="1" as="geometry"/>
                </mxCell>
                <mxCell id="2" value="App::new&lt;br&gt;Controller" style="whiteSpace=wrap;html=1;" vertex="1" parent="1">
                    <mxGeometry x="240" y="200" width="120" height="60" as="geometry"/>
                </mxCell>
                <mxCell id="4" value="View" style="whiteSpace=wrap;html=1;" vertex="1" parent="1">
                    <mxGeometry x="440" y="160" width="120" height="60" as="geometry"/>
                </mxCell>
                <mxCell id="6" value="Model" style="whiteSpace=wrap;html=1;" vertex="1" parent="1">
                    <mxGeometry x="440" y="250" width="120" height="60" as="geometry"/>
                </mxCell>
                <mxCell id="16" value="App holds Model and View&lt;br&gt;App acts as the Controller" style="text;html=1;align=center;verticalAlign=middle;resizable=0;points=[];autosize=1;strokeColor=none;fillColor=none;" vertex="1" parent="1">
                    <mxGeometry x="310" y="100" width="170" height="40" as="geometry"/>
                </mxCell>
            </root>
        </mxGraphModel>
    </diagram>
</mxfile>